<?xml version="1.0" encoding="UTF-8"?>
<level>
  <owner>Fistachka</owner>
  <repo>ice-cream</repo>
  <version>v1.0.0</version>
  <next number="1" owner="stolbitsa" repo="submediant"/>
  <readme>
    <ru>d975999cd657d6b7914630cc72f7e44ca736377ce19fa420e79cc383e70cd125</ru>
    <en>8a9480cfcf735fff275ce14bc715850a01bdbdf9e20643f0fc1559a90068090a</en>
  </readme>
  <license>b1b99f5538d1fd3702219bff50c665196dfa42f6ee755c37fe41a6178d6bc6e5</license>
  <exercise number="1">
    <scale>major</scale>
    <bpm>130</bpm>
    <lowestNote>1</lowestNote>
    <tonalities>1</tonalities>
    <video name="1t.mp4" size="1682257" type="video/mp4" volume="0.4">eb941a3627067f1bd2609ca81c27338af568299febc332d3ee68c35adb06e2b3</video>
    <notes>
      <note number="1" values="1" ticks="72" durationTicks="48" ppq="96" velocity="0.843"/>
      <note number="2" values="2" ticks="120" durationTicks="49" ppq="96" velocity="0.913"/>
      <note number="3" values="6" ticks="168" durationTicks="73" ppq="96" velocity="0.874"/>
      <note number="4" values="5" ticks="216" durationTicks="49" ppq="96" velocity="0.929"/>
      <note number="5" values="4" ticks="264" durationTicks="144" ppq="96" velocity="0.844"/>
      <note number="6" values="5" ticks="313" durationTicks="143" ppq="96" velocity="0.882"/>
    </notes>
  </exercise>
  <exercise number="2">
    <scale>major</scale>
    <bpm>130</bpm>
    <lowestNote>1</lowestNote>
    <tonalities>1</tonalities>
    <video name="2t.mp4" size="1703057" type="video/mp4" volume="0.4">a518379ef860bab14096d19da7c8391d02653ed046cf82174aa0e07aca1dca0f</video>
    <notes>
      <note number="1" values="6" ticks="96" durationTicks="72" ppq="96" velocity="0.843"/>
      <note number="2" values="5" ticks="144" durationTicks="58" ppq="96" velocity="0.913"/>
      <note number="3" values="4" ticks="192" durationTicks="72" ppq="96" velocity="0.874"/>
      <note number="4" values="5" ticks="240" durationTicks="72" ppq="96" velocity="0.921"/>
      <note number="5" values="6" ticks="288" durationTicks="192" ppq="96" velocity="0.827"/>
    </notes>
  </exercise>
  <exercise number="3">
    <scale>major</scale>
    <bpm>130</bpm>
    <lowestNote>1</lowestNote>
    <tonalities>1</tonalities>
    <video name="3t.mp4" size="1718736" type="video/mp4" volume="0.4">511e028ee010ff3380ae48e2d0495caaf3fd94aa9921044c103deb037f757d26</video>
    <notes>
      <note number="1" values="1" ticks="72" durationTicks="48" ppq="96" velocity="0.843"/>
      <note number="2" values="2" ticks="120" durationTicks="49" ppq="96" velocity="0.917"/>
      <note number="3" values="6" ticks="168" durationTicks="49" ppq="96" velocity="0.874"/>
      <note number="4" values="5" ticks="216" durationTicks="97" ppq="96" velocity="0.902"/>
      <note number="5" values="4" ticks="264" durationTicks="144" ppq="96" velocity="0.819"/>
      <note number="6" values="5" ticks="313" durationTicks="99" ppq="96" velocity="0.709"/>
    </notes>
  </exercise>
  <exercise number="4">
    <scale>major</scale>
    <bpm>130</bpm>
    <lowestNote>1</lowestNote>
    <tonalities>1</tonalities>
    <video name="4t.mp4" size="1701782" type="video/mp4" volume="0.4">4c282b2e185bc1cc98f57c6ec625fe4b97565e99259054e6fee1f6d963a0f9dc</video>
    <notes>
      <note number="1" values="18" ticks="144" durationTicks="96" ppq="96" velocity="0.843"/>
      <note number="2" values="5" ticks="193" durationTicks="95" ppq="96" velocity="0.913"/>
      <note number="3" values="18" ticks="240" durationTicks="97" ppq="96" velocity="0.874"/>
      <note number="4" values="5" ticks="289" durationTicks="95" ppq="96" velocity="0.829"/>
      <note number="5" values="18" ticks="337" durationTicks="240" ppq="96" velocity="0.944"/>
    </notes>
  </exercise>
  <exercise number="5">
    <scale>major</scale>
    <bpm>130</bpm>
    <lowestNote>1</lowestNote>
    <tonalities>1</tonalities>
    <video name="5t.mp4" size="1758433" type="video/mp4" volume="0.4">22757b0825f865823fb21d18471554cb58656c9f8fc80a137a211779dc1e440d</video>
    <notes>
      <note number="1" values="6" ticks="72" durationTicks="61" ppq="96" velocity="0.843"/>
      <note number="2" values="5" ticks="120" durationTicks="49" ppq="96" velocity="0.913"/>
      <note number="3" values="4" ticks="168" durationTicks="56" ppq="96" velocity="0.874"/>
      <note number="4" values="5" ticks="216" durationTicks="57" ppq="96" velocity="0.921"/>
      <note number="5" values="6" ticks="264" durationTicks="144" ppq="96" velocity="0.921"/>
    </notes>
  </exercise>
  <exercise number="6">
    <scale>major</scale>
    <bpm>130</bpm>
    <lowestNote>1</lowestNote>
    <tonalities>1</tonalities>
    <video name="6t.mp4" size="1676671" type="video/mp4" volume="0.4">90b7378fccef4b3e62f4cc142a642daaa3236a695f23447855e7c54b62a26a6f</video>
    <notes>
      <note number="1" values="1" ticks="96" durationTicks="145" ppq="96" velocity="0.843"/>
      <note number="2" values="2" ticks="144" durationTicks="53" ppq="96" velocity="0.913"/>
      <note number="3" values="18" ticks="192" durationTicks="48" ppq="96" velocity="0.874"/>
      <note number="4" values="6" ticks="240" durationTicks="65" ppq="96" velocity="0.884"/>
      <note number="5" values="5" ticks="288" durationTicks="49" ppq="96" velocity="0.779"/>
      <note number="6" values="4" ticks="337" durationTicks="230" ppq="96" velocity="0.887"/>
    </notes>
  </exercise>
  <exercise number="7">
    <scale>major</scale>
    <bpm>130</bpm>
    <lowestNote>1</lowestNote>
    <tonalities>1</tonalities>
    <video name="7t.mp4" size="1713494" type="video/mp4" volume="0.4">0dc758f4cc6eb5091376473d17e200b17db2d458c967a3440443d300e8badbb6</video>
    <notes>
      <note number="1" values="6" ticks="96" durationTicks="72" ppq="96" velocity="0.843"/>
      <note number="2" values="5" ticks="144" durationTicks="48" ppq="96" velocity="0.913"/>
      <note number="3" values="4" ticks="192" durationTicks="91" ppq="96" velocity="0.874"/>
      <note number="4" values="5" ticks="240" durationTicks="95" ppq="96" velocity="0.934"/>
      <note number="5" values="6" ticks="288" durationTicks="145" ppq="96" velocity="0.837"/>
      <note number="6" values="5" ticks="336" durationTicks="169" ppq="96" velocity="0.879"/>
    </notes>
  </exercise>
  <exercise number="8">
    <scale>major</scale>
    <bpm>130</bpm>
    <lowestNote>1</lowestNote>
    <tonalities>1</tonalities>
    <video name="8t.mp4" size="1800744" type="video/mp4" volume="0.4">177c1cd24ca1c94496cfcf1f76e59312d47ab71565b76ddcf92fd2876452cb71</video>
    <notes>
      <note number="1" values="18" ticks="96" durationTicks="59" ppq="96" velocity="0.843"/>
      <note number="2" values="5" ticks="144" durationTicks="61" ppq="96" velocity="0.913"/>
      <note number="3" values="18" ticks="192" durationTicks="62" ppq="96" velocity="0.874"/>
      <note number="4" values="5" ticks="240" durationTicks="62" ppq="96" velocity="0.852"/>
      <note number="5" values="18" ticks="289" durationTicks="237" ppq="96" velocity="0.924"/>
    </notes>
  </exercise>
  <exercise number="9">
    <scale>major</scale>
    <bpm>130</bpm>
    <lowestNote>1</lowestNote>
    <tonalities>1</tonalities>
    <video name="9t.mp4" size="1625034" type="video/mp4" volume="0.4">68883f218a0ab4353ca6f5de51c16228f02bbb5135d4d97b11e5bc8d1c748904</video>
    <notes>
      <note number="1" values="6" ticks="48" durationTicks="72" ppq="96" velocity="0.843"/>
      <note number="2" values="5" ticks="96" durationTicks="72" ppq="96" velocity="0.913"/>
      <note number="3" values="4" ticks="144" durationTicks="72" ppq="96" velocity="0.874"/>
      <note number="4" values="5" ticks="192" durationTicks="49" ppq="96" velocity="0.852"/>
      <note number="5" values="6" ticks="240" durationTicks="145" ppq="96" velocity="0.897"/>
      <note number="6" values="4" ticks="288" durationTicks="145" ppq="96" velocity="0.854"/>
    </notes>
  </exercise>
  <exercise number="10">
    <scale>major</scale>
    <bpm>130</bpm>
    <lowestNote>1</lowestNote>
    <tonalities>1</tonalities>
    <video name="10t.mp4" size="1710220" type="video/mp4" volume="0.4">6827b40ef0dc353931096ed90498bc239de4c7c6ee879debfab69ab0e4492a9c</video>
    <notes>
      <note number="1" values="5" ticks="72" durationTicks="49" ppq="96" velocity="0.843"/>
      <note number="2" values="6" ticks="120" durationTicks="48" ppq="96" velocity="0.913"/>
      <note number="3" values="5" ticks="169" durationTicks="55" ppq="96" velocity="0.874"/>
      <note number="4" values="4" ticks="216" durationTicks="51" ppq="96" velocity="0.862"/>
      <note number="5" values="5" ticks="264" durationTicks="128" ppq="96" velocity="0.847"/>
      <note number="6" values="1" ticks="312" durationTicks="98" ppq="96" velocity="0.921"/>
    </notes>
  </exercise>
</level>
